<svg width="28" height="32" viewBox="0 0 28 32" fill="none" xmlns="http://www.w3.org/2000/svg">
<path d="M20 3V5H27C27.2652 5 27.5196 5.10536 27.7071 5.29289C27.8946 5.48043 28 5.73478 28 6C28 6.26522 27.8946 6.51957 27.7071 6.70711C27.5196 6.89464 27.2652 7 27 7H25.924L24.218 28.32C24.1376 29.3224 23.6825 30.2577 22.9435 30.9397C22.2044 31.6216 21.2356 32.0002 20.23 32H7.77C6.76439 32.0002 5.79559 31.6216 5.05655 30.9397C4.31751 30.2577 3.86245 29.3224 3.782 28.32L2.076 7H1C0.734784 7 0.48043 6.89464 0.292893 6.70711C0.105357 6.51957 0 6.26522 0 6C0 5.73478 0.105357 5.48043 0.292893 5.29289C0.48043 5.10536 0.734784 5 1 5H8V3C8 2.20435 8.31607 1.44129 8.87868 0.87868C9.44129 0.31607 10.2044 0 11 0L17 0C17.7956 0 18.5587 0.31607 19.1213 0.87868C19.6839 1.44129 20 2.20435 20 3ZM10 3V5H18V3C18 2.73478 17.8946 2.48043 17.7071 2.29289C17.5196 2.10536 17.2652 2 17 2H11C10.7348 2 10.4804 2.10536 10.2929 2.29289C10.1054 2.48043 10 2.73478 10 3ZM7 10.058L8 27.058C8.00534 27.1909 8.03713 27.3214 8.09352 27.4418C8.1499 27.5623 8.22975 27.6703 8.32838 27.7595C8.42702 27.8487 8.54246 27.9174 8.66795 27.9614C8.79343 28.0055 8.92645 28.024 9.05921 28.0161C9.19196 28.0081 9.32179 27.9737 9.4411 27.9149C9.56041 27.8562 9.66679 27.7742 9.75403 27.6738C9.84126 27.5734 9.90759 27.4566 9.94914 27.3303C9.99069 27.2039 10.0066 27.0706 9.996 26.938L8.996 9.938C8.99066 9.80511 8.95887 9.67462 8.90248 9.55417C8.8461 9.43372 8.76625 9.32572 8.66762 9.23651C8.56898 9.14729 8.45354 9.07865 8.32805 9.03459C8.20257 8.99054 8.06955 8.97196 7.93679 8.97994C7.80404 8.98792 7.67421 9.0223 7.5549 9.08107C7.43559 9.13985 7.32921 9.22183 7.24197 9.32222C7.15474 9.42261 7.08841 9.53939 7.04686 9.66573C7.00531 9.79207 6.98938 9.92543 7 10.058ZM20.06 9.002C19.7953 8.9867 19.5354 9.07713 19.3374 9.25339C19.1394 9.42966 19.0195 9.67734 19.004 9.942L18.004 26.942C17.9954 27.2027 18.0891 27.4565 18.2649 27.6491C18.4408 27.8418 18.685 27.9581 18.9454 27.9732C19.2059 27.9884 19.4619 27.9011 19.6589 27.7301C19.8559 27.5592 19.9783 27.318 20 27.058L21 10.058C21.0153 9.79333 20.9249 9.53343 20.7486 9.33541C20.5723 9.13739 20.3247 9.01746 20.06 9.002ZM14 9C13.7348 9 13.4804 9.10536 13.2929 9.29289C13.1054 9.48043 13 9.73478 13 10V27C13 27.2652 13.1054 27.5196 13.2929 27.7071C13.4804 27.8946 13.7348 28 14 28C14.2652 28 14.5196 27.8946 14.7071 27.7071C14.8946 27.5196 15 27.2652 15 27V10C15 9.73478 14.8946 9.48043 14.7071 9.29289C14.5196 9.10536 14.2652 9 14 9Z" fill="#E61212"/>
</svg>
