<svg width="64" height="64" viewBox="0 0 64 64" fill="none" xmlns="http://www.w3.org/2000/svg">
<path d="M0 32C0 49.6723 14.3277 64 32 64C49.6723 64 64 49.6723 64 32C64 14.3277 49.6723 0 32 0C14.3277 0 0 14.3277 0 32ZM32.7154 17.9446C32.9449 18.1723 33.1274 18.4429 33.2523 18.7411C33.3772 19.0393 33.4422 19.3592 33.4435 19.6825C33.4448 20.0058 33.3824 20.3262 33.2598 20.6254C33.1372 20.9246 32.957 21.1967 32.7292 21.4262L24.68 29.5385H45.2308C45.8836 29.5385 46.5097 29.7978 46.9713 30.2594C47.433 30.7211 47.6923 31.3472 47.6923 32C47.6923 32.6528 47.433 33.2789 46.9713 33.7406C46.5097 34.2022 45.8836 34.4615 45.2308 34.4615H24.68L32.7292 42.5738C32.9569 42.8036 33.1371 43.0759 33.2596 43.3752C33.382 43.6746 33.4443 43.9951 33.4429 44.3186C33.4415 44.642 33.3764 44.962 33.2513 45.2603C33.1262 45.5585 32.9436 45.8292 32.7138 46.0569C32.4841 46.2846 32.2118 46.4648 31.9125 46.5873C31.6131 46.7097 31.2926 46.772 30.9691 46.7706C30.6457 46.7692 30.3257 46.7041 30.0274 46.579C29.7292 46.4539 29.4585 46.2713 29.2308 46.0415L17.0169 33.7338C16.5594 33.2728 16.3027 32.6496 16.3027 32C16.3027 31.3504 16.5594 30.7272 17.0169 30.2662L29.2308 17.9585C29.4585 17.7285 29.7294 17.5456 30.0278 17.4204C30.3263 17.2952 30.6465 17.2301 30.9702 17.2288C31.2939 17.2275 31.6146 17.2901 31.9141 17.4129C32.2135 17.5357 32.4858 17.7164 32.7154 17.9446Z" fill="#12C7E6"/>
</svg>
