<svg width="24" height="32" viewBox="0 0 24 32" fill="none" xmlns="http://www.w3.org/2000/svg">
<path d="M14.586 0H4C2.93913 0 1.92172 0.421427 1.17157 1.17157C0.421427 1.92172 0 2.93913 0 4V28C0 29.0609 0.421427 30.0783 1.17157 30.8284C1.92172 31.5786 2.93913 32 4 32H20C21.0609 32 22.0783 31.5786 22.8284 30.8284C23.5786 30.0783 24 29.0609 24 28V9.414C23.9999 8.88361 23.7891 8.37499 23.414 8L16 0.586C15.625 0.210901 15.1164 0.000113275 14.586 0ZM15 7V3L21 9H17C16.4696 9 15.9609 8.78929 15.5858 8.41421C15.2107 8.03914 15 7.53043 15 7ZM8.708 19.708C8.61502 19.801 8.50465 19.8747 8.38317 19.925C8.26169 19.9754 8.13149 20.0013 8 20.0013C7.86851 20.0013 7.73831 19.9754 7.61683 19.925C7.49535 19.8747 7.38498 19.801 7.292 19.708C7.19902 19.615 7.12527 19.5046 7.07495 19.3832C7.02463 19.2617 6.99874 19.1315 6.99874 19C6.99874 18.8685 7.02463 18.7383 7.07495 18.6168C7.12527 18.4954 7.19902 18.385 7.292 18.292L11.292 14.292C11.3849 14.1989 11.4952 14.125 11.6167 14.0746C11.7382 14.0242 11.8685 13.9982 12 13.9982C12.1315 13.9982 12.2618 14.0242 12.3833 14.0746C12.5048 14.125 12.6151 14.1989 12.708 14.292L16.708 18.292C16.801 18.385 16.8747 18.4954 16.925 18.6168C16.9754 18.7383 17.0013 18.8685 17.0013 19C17.0013 19.1315 16.9754 19.2617 16.925 19.3832C16.8747 19.5046 16.801 19.615 16.708 19.708C16.615 19.801 16.5046 19.8747 16.3832 19.925C16.2617 19.9754 16.1315 20.0013 16 20.0013C15.8685 20.0013 15.7383 19.9754 15.6168 19.925C15.4954 19.8747 15.385 19.801 15.292 19.708L13 17.414V25C13 25.2652 12.8946 25.5196 12.7071 25.7071C12.5196 25.8946 12.2652 26 12 26C11.7348 26 11.4804 25.8946 11.2929 25.7071C11.1054 25.5196 11 25.2652 11 25V17.414L8.708 19.708Z" fill="#12C7E6"/>
</svg>
