<svg width="48" height="64" viewBox="0 0 48 64" fill="none" xmlns="http://www.w3.org/2000/svg">
<path d="M8 0C3.5875 0 0 3.5875 0 8V56C0 60.4125 3.5875 64 8 64H40C44.4125 64 48 60.4125 48 56V20H32C29.7875 20 28 18.2125 28 16V0H8ZM32 0V16H48L32 0ZM12 6C12 4.9 12.9 4 14 4H18C19.1 4 20 4.9 20 6C20 7.1 19.1 8 18 8H14C12.9 8 12 7.1 12 6ZM12 14C12 12.9 12.9 12 14 12H18C19.1 12 20 12.9 20 14C20 15.1 19.1 16 18 16H14C12.9 16 12 15.1 12 14ZM12 22C12 20.9 12.9 20 14 20H18C19.1 20 20 20.9 20 22C20 23.1 19.1 24 18 24H14C12.9 24 12 23.1 12 22ZM11.2125 30.975C11.675 29.225 13.2625 28 15.075 28H16.925C18.7375 28 20.325 29.2125 20.7875 30.975L23.725 42C23.9 42.675 23.9875 43.3625 23.9875 44.05C23.9875 48.45 20.3875 52.0125 15.9875 52.0125C11.5875 52.0125 7.9875 48.45 7.9875 44.05C7.9875 43.3625 8.075 42.6625 8.25 42L11.1875 30.975H11.2125ZM14 42C12.9 42 12 42.9 12 44C12 45.1 12.9 46 14 46H18C19.1 46 20 45.1 20 44C20 42.9 19.1 42 18 42H14Z" fill="url(#paint0_linear_7_15)"/>
<defs>
<linearGradient id="paint0_linear_7_15" x1="96" y1="-185" x2="144" y2="-185" gradientUnits="userSpaceOnUse">
<stop stop-color="#12C7E6"/>
<stop offset="1" stop-color="#12E6BF"/>
</linearGradient>
</defs>
</svg>
