<svg width="32" height="32" viewBox="0 0 32 32" fill="none" xmlns="http://www.w3.org/2000/svg">
<path d="M25.7065 0.292783C25.519 0.105314 25.2647 0 24.9995 0C24.7344 0 24.4801 0.105314 24.2926 0.292783L20.9987 3.58674L28.4124 11.0006L31.7062 7.70869C31.7993 7.6158 31.8732 7.50545 31.9236 7.38396C31.9741 7.26247 32 7.13223 32 7.0007C32 6.86917 31.9741 6.73892 31.9236 6.61744C31.8732 6.49595 31.7993 6.3856 31.7062 6.29271L25.7065 0.292783ZM26.9984 12.4146L19.5848 5.00072L6.58532 18.0006H6.99931C7.26451 18.0006 7.51885 18.1059 7.70638 18.2934C7.89391 18.481 7.99926 18.7353 7.99926 19.0005V20.0005H8.99922C9.26442 20.0005 9.51877 20.1059 9.70629 20.2934C9.89382 20.481 9.99917 20.7353 9.99917 21.0005V22.0005H10.9991C11.2643 22.0005 11.5187 22.1059 11.7062 22.2934C11.8937 22.4809 11.9991 22.7353 11.9991 23.0005V24.0005H12.999C13.2642 24.0005 13.5186 24.1058 13.7061 24.2934C13.8936 24.4809 13.999 24.7353 13.999 25.0005V25.4145L26.9984 12.4146ZM12.0631 27.3504C12.021 27.2385 11.9993 27.12 11.9991 27.0004V26.0005H10.9991C10.7339 26.0005 10.4796 25.8951 10.2921 25.7076C10.1045 25.52 9.99917 25.2657 9.99917 25.0005V24.0005H8.99922C8.73401 24.0005 8.47967 23.8951 8.29214 23.7076C8.10461 23.5201 7.99926 23.2657 7.99926 23.0005V22.0005H6.99931C6.7341 22.0005 6.47976 21.8952 6.29223 21.7076C6.1047 21.5201 5.99935 21.2657 5.99935 21.0005V20.0005H4.99939C4.87984 20.0003 4.7613 19.9787 4.64941 19.9365L4.29142 20.2925C4.19613 20.3885 4.12129 20.5028 4.07143 20.6285L0.071609 30.6284C-0.00112914 30.8101 -0.0189354 31.0092 0.0203978 31.201C0.059731 31.3927 0.154474 31.5687 0.292881 31.7071C0.431288 31.8455 0.607272 31.9403 0.799016 31.9796C0.99076 32.0189 1.18983 32.0011 1.37155 31.9284L11.3711 27.9284C11.4968 27.8786 11.6111 27.8037 11.7071 27.7084L12.0631 27.3504Z" fill="#BCBCBC"/>
</svg>
