<svg width="64" height="64" viewBox="0 0 64 64" fill="none" xmlns="http://www.w3.org/2000/svg">
<path d="M64 32C64 14.3277 49.6723 0 32 0C14.3277 0 0 14.3277 0 32C0 49.6723 14.3277 64 32 64C49.6723 64 64 49.6723 64 32ZM31.2846 46.0554C31.0551 45.8277 30.8726 45.5571 30.7477 45.2589C30.6228 44.9607 30.5578 44.6408 30.5565 44.3175C30.5552 43.9942 30.6176 43.6738 30.7402 43.3746C30.8628 43.0754 31.043 42.8033 31.2708 42.5738L39.32 34.4615L18.7692 34.4615C18.1164 34.4615 17.4903 34.2022 17.0287 33.7406C16.567 33.2789 16.3077 32.6528 16.3077 32C16.3077 31.3472 16.567 30.7211 17.0287 30.2594C17.4903 29.7978 18.1164 29.5385 18.7692 29.5385L39.32 29.5385L31.2708 21.4262C31.0431 21.1964 30.8629 20.9241 30.7404 20.6248C30.618 20.3254 30.5557 20.0049 30.5571 19.6814C30.5585 19.358 30.6236 19.038 30.7487 18.7397C30.8738 18.4415 31.0564 18.1708 31.2862 17.9431C31.5159 17.7154 31.7882 17.5352 32.0875 17.4127C32.3869 17.2903 32.7074 17.228 33.0309 17.2294C33.3543 17.2308 33.6743 17.2959 33.9726 17.421C34.2708 17.5461 34.5415 17.7287 34.7692 17.9585L46.9831 30.2662C47.4406 30.7272 47.6973 31.3504 47.6973 32C47.6973 32.6496 47.4406 33.2728 46.9831 33.7338L34.7692 46.0415C34.5415 46.2715 34.2706 46.4544 33.9722 46.5796C33.6737 46.7048 33.3535 46.7699 33.0298 46.7712C32.7061 46.7725 32.3854 46.7099 32.0859 46.5871C31.7865 46.4643 31.5142 46.2836 31.2846 46.0554Z" fill="#12C7E6"/>
</svg>
