<svg width="41" height="32" viewBox="0 0 41 32" fill="none" xmlns="http://www.w3.org/2000/svg">
<path d="M29.8893 13.3323H40.336C40.4622 13.3324 40.5858 13.3685 40.6923 13.4366C40.7988 13.5046 40.8838 13.6017 40.9373 13.7164C40.9908 13.8312 41.0107 13.9589 40.9945 14.0846C40.9784 14.2103 40.9269 14.3287 40.8461 14.4261L35.6228 20.7217C35.5604 20.7968 35.4824 20.8572 35.3943 20.8986C35.3061 20.94 35.21 20.9615 35.1127 20.9615C35.0153 20.9615 34.9192 20.94 34.831 20.8986C34.7429 20.8572 34.6649 20.7968 34.6026 20.7217L29.3792 14.4261C29.2984 14.3287 29.2469 14.2103 29.2308 14.0846C29.2147 13.9589 29.2345 13.8312 29.288 13.7164C29.3416 13.6017 29.4265 13.5046 29.533 13.4366C29.6395 13.3685 29.7631 13.3324 29.8893 13.3323ZM0.663964 18.6676H11.1107C11.2369 18.6676 11.3605 18.6314 11.467 18.5634C11.5735 18.4954 11.6584 18.3983 11.712 18.2836C11.7655 18.1688 11.7853 18.0411 11.7692 17.9154C11.7531 17.7897 11.7016 17.6713 11.6208 17.5739L6.39744 11.2783C6.33511 11.2032 6.2571 11.1428 6.16895 11.1014C6.0808 11.06 5.98466 11.0385 5.88733 11.0385C5.79 11.0385 5.69385 11.06 5.6057 11.1014C5.51755 11.1428 5.43955 11.2032 5.37721 11.2783L0.153849 17.5739C0.0730744 17.6713 0.0216014 17.7897 0.00545698 17.9154C-0.0106874 18.0411 0.00916514 18.1688 0.06269 18.2836C0.116215 18.3983 0.201196 18.4954 0.307683 18.5634C0.41417 18.6314 0.537754 18.6676 0.663964 18.6676Z" fill="white"/>
<path fill-rule="evenodd" clip-rule="evenodd" d="M20.5 2.66176C16.3766 2.66176 12.6889 4.54778 10.2525 7.51154C10.1437 7.65312 10.0077 7.77129 9.85252 7.85903C9.69733 7.94676 9.52616 8.00227 9.34918 8.02225C9.17219 8.04223 8.99302 8.02627 8.8223 7.97533C8.65159 7.92438 8.49281 7.83949 8.35543 7.7257C8.21804 7.61191 8.10485 7.47154 8.02257 7.31295C7.9403 7.15435 7.89063 6.98076 7.87651 6.80251C7.86239 6.62425 7.88412 6.44496 7.9404 6.2753C7.99667 6.10564 8.08635 5.94908 8.2041 5.81492C10.1494 3.45012 12.7303 1.6961 15.6397 0.761472C18.5492 -0.173153 21.6648 -0.249048 24.6159 0.542814C27.5671 1.33468 30.2296 2.96097 32.2869 5.22827C34.3441 7.49556 35.7095 10.3084 36.2206 13.3323H33.5186C32.9051 10.3201 31.2745 7.61289 28.9024 5.66858C26.5302 3.72427 23.5622 2.66213 20.5 2.66176ZM7.48144 18.6676C7.98441 21.1342 9.17213 23.4076 10.9074 25.2251C12.6426 27.0426 14.8546 28.3301 17.2878 28.9389C19.7209 29.5476 22.276 29.4527 24.6577 28.6652C27.0394 27.8777 29.1506 26.4297 30.7475 24.4885C30.8563 24.3469 30.9923 24.2287 31.1475 24.141C31.3027 24.0532 31.4738 23.9977 31.6508 23.9777C31.8278 23.9578 32.007 23.9737 32.1777 24.0247C32.3484 24.0756 32.5072 24.1605 32.6446 24.2743C32.782 24.3881 32.8952 24.5285 32.9774 24.687C33.0597 24.8456 33.1094 25.0192 33.1235 25.1975C33.1376 25.3757 33.1159 25.555 33.0596 25.7247C33.0033 25.8944 32.9136 26.0509 32.7959 26.1851C30.8506 28.5499 28.2697 30.3039 25.3603 31.2385C22.4508 32.1731 19.3352 32.249 16.3841 31.4572C13.4329 30.6653 10.7704 29.039 8.71312 26.7717C6.65588 24.5044 5.29052 21.6916 4.77942 18.6676H7.48144Z" fill="white"/>
</svg>
